<?xml version="1.0" encoding="UTF-8"?>
<svg xmlns="http://www.w3.org/2000/svg" viewBox="0 0 130.0 130.0" width="130.0" height="130.0">
  <defs>
    <style>
  /* Icon only - no fonts */
    </style>
  </defs>
  <rect width="100%" height="100%" fill="#000B24"/>
  
  <g transform="translate(15.0, 15.0) scale(0.09765625)"><path d="M666.795 168.902C666.95 169.144 666.953 169.453 666.803 169.699C666.654 169.945 666.377 170.084 666.091 170.058C655.615 169.388 646.521 166.262 638.811 160.68C637.992 160.095 637.241 159.412 636.573 158.643C625.636 145.921 613.216 134.33 598.733 126.636C594.677 124.474 590.336 121.935 585.709 119.018C585.394 118.842 584.998 118.914 584.765 119.19C584.532 119.466 584.527 119.868 584.754 120.15C603.636 141.244 616.886 155.475 629.81 175.715C646.236 201.395 653.285 229.353 650.955 259.592C649.421 279.606 645.952 299.996 650.528 316.767C650.622 317.117 650.499 317.489 650.214 317.714C649.93 317.938 649.538 317.971 649.22 317.798C633.33 308.822 628.427 291.574 627.195 274.577C625.234 248.102 620.23 221.676 602.203 201.537C597.024 195.737 590.604 189.544 582.944 182.956C582.718 182.781 582.391 182.792 582.181 182.983C581.971 183.175 581.942 183.486 582.114 183.711C585.064 187.817 587.344 191.899 588.953 195.955C605.329 237.475 611.799 278.633 608.363 319.432C607.424 330.612 603.896 342.714 597.778 355.738C591.693 368.687 579.952 378.266 572.836 391.894C562.008 412.662 558.756 434.854 563.081 458.472C563.165 458.901 563.038 459.344 562.739 459.663C562.44 459.983 562.006 460.138 561.572 460.081C552.102 458.857 545.246 453.938 541.005 445.322C529.138 421.185 525.618 398.305 539.371 374.897C556.393 345.907 571.529 319.91 564.514 286.847C563.827 283.561 562.678 280.804 561.069 278.575C560.877 278.301 560.534 278.175 560.21 278.258C559.885 278.342 559.647 278.619 559.611 278.952C555.136 312.115 537.963 340.175 518.351 367.103C497.081 396.268 486.797 438.458 493.837 474.765C493.907 475.123 493.76 475.49 493.462 475.701C493.164 475.912 492.77 475.93 492.454 475.745C478.291 467.23 467.278 456.326 459.417 443.034C445.513 419.45 456.475 384.175 473.321 364.991C473.543 364.824 473.588 364.509 473.421 364.287C473.255 364.065 472.939 364.02 472.717 364.186C462.677 368.829 454.145 376.003 447.122 385.708C433.193 405.018 421.275 419.945 411.369 430.488C390.978 452.161 373.805 470.239 372.925 500.36C372.929 500.566 372.801 500.751 372.607 500.819C372.413 500.887 372.197 500.824 372.07 500.662C351.101 475.267 344.111 434.762 366.162 407.859C375.448 396.562 383.812 386.555 391.254 377.839C391.597 377.459 391.622 376.895 391.313 376.483C391.005 376.072 390.447 375.925 389.972 376.129C377.903 381.208 367.343 386.454 358.292 391.868C346.299 399.034 334.582 409.267 321.986 414.648C295.661 425.887 269.035 428.627 243.59 436.623C243.243 436.731 242.865 436.628 242.621 436.357C242.378 436.087 242.314 435.699 242.459 435.366C250.354 416.835 259.807 400.316 276.477 385.658C289.015 374.646 295.661 368.863 296.415 368.31C317.653 352.403 337.977 337.099 357.387 322.399C365.558 316.214 376.37 310.582 388.463 306.332C407.597 299.619 442.319 286.444 450.265 265.576C450.437 265.1 450.294 264.567 449.907 264.241C449.519 263.915 448.969 263.866 448.53 264.118C433.193 273.169 417.403 278.876 387.81 291.85C384.374 293.359 373.503 299.326 355.199 309.752C348.076 313.825 337.725 320.622 324.148 330.143C306.431 342.563 286.677 355.453 264.886 368.812C254.963 374.897 246.448 381.543 239.341 388.751C239.232 388.844 239.077 388.861 238.95 388.795C238.823 388.728 238.749 388.592 238.763 388.449C239.819 381.786 241.101 375.023 244.068 368.259C253.153 347.558 264.819 328.584 279.067 311.336C302.651 282.774 335.739 265.626 370.587 253.306C409.181 239.679 452.879 220.847 455.343 173.452C455.897 162.876 452.561 154.319 445.337 147.782C445.071 147.549 444.692 147.498 444.375 147.652C444.057 147.805 443.862 148.133 443.878 148.486C444.901 163.454 442.755 177.408 437.442 190.348C435.9 194.103 432.346 198.419 426.781 203.297C417.931 211.041 406.784 216.455 393.341 219.539C375.859 223.545 362.801 226.395 354.169 228.088C336.669 231.524 324.089 241.162 316.429 257.002C315.896 258.104 314.643 258.651 313.487 258.284C291.563 251.546 277.659 229.923 283.366 207.571C283.993 205.121 285.805 203.148 288.194 202.316C301.67 197.64 311.049 201.21 328.372 204.604C360.228 210.89 366.916 181.85 357.789 158.392C350.984 140.876 338.178 135.135 319.371 141.169C316.974 141.94 309.33 145.804 296.441 152.76C295.192 153.442 293.842 153.918 292.443 154.168C280.307 156.397 271.633 150.958 266.42 137.85C262.833 128.832 264.342 121.784 270.946 116.705C272.739 115.314 279.712 110.453 291.865 102.122C292.864 101.423 293.342 100.199 293.071 99.0295L292.895 98.2501C292.824 97.9746 292.634 97.7453 292.379 97.6277C292.124 97.51 291.833 97.517 291.588 97.6467L265.238 110.922C262.625 112.238 259.526 112.153 256.99 110.695C254.453 109.237 252.819 106.601 252.642 103.681L252.491 101.393C251.925 94.4836 255.96 88.017 262.422 85.4775C275.815 80.1975 291.839 76.0825 310.495 73.1324C316.748 72.1434 324.022 69.3777 332.319 64.8352C333.896 63.9556 335.272 62.7756 336.367 61.3655L342.301 53.7472C344.092 51.4685 346.6 49.8643 349.417 49.1964L381.801 41.6032C384.352 41.0105 387.018 41.1147 389.519 41.905C409.667 48.3415 430.595 48.5762 452.301 42.609C452.705 42.4813 452.967 42.0906 452.93 41.6686C452.894 41.2465 452.57 40.906 452.15 40.849C437.517 39.2398 423.513 36.3316 410.137 32.1244C408.46 31.588 407.254 30.9762 406.516 30.289C406.26 30.042 406.145 29.6829 406.211 29.3333C406.277 28.9838 406.515 28.6909 406.843 28.5541C412.659 26.0566 418.593 24.8581 424.644 24.9587C452.829 25.4112 491.423 26.0147 509.275 0.469516C509.505 0.134047 509.904-0.043811 510.307 0.00926261C510.711 0.0623362 511.05 0.337355 511.186 0.720945C515.787 13.6695 511.588 21.665 502.361 31.169C496.427 37.2871 489.974 43.2124 483.001 48.945C482.661 49.2357 482.548 49.7118 482.72 50.1243C482.892 50.5367 483.31 50.7915 483.755 50.7552C488.079 50.3027 495.195 49.0707 500.349 46.9587C510.809 42.6509 518.067 40.2539 522.123 39.7678C539.069 37.7229 554.968 38.1587 569.819 41.0752C590.662 45.1735 614.724 49.6741 631.168 33.105C631.599 32.6714 632.258 32.5594 632.808 32.8261C633.359 33.0928 633.679 33.6794 633.606 34.2867C633.154 37.7899 631.939 41.3434 629.961 44.9472C617.44 67.8273 596.646 69.9895 572.861 68.1541C571.421 68.0418 570.098 67.3297 569.216 66.193C556.418 49.4981 532.406 52.9678 515.762 62.3461C502.805 69.6543 491.625 76.6273 482.221 83.265C481.687 83.6342 481.443 84.2999 481.613 84.9268C481.782 85.5537 482.328 86.006 482.975 86.0558C496.427 87.0867 508.244 80.5244 522.198 74.9427C532.624 70.769 543.293 69.3526 554.205 70.6935C557.009 71.049 559.185 73.3097 559.435 76.1244C562.025 105.718 547.165 134.959 519.483 146.449C518.964 146.673 518.653 147.21 518.716 147.771C518.78 148.332 519.204 148.786 519.759 148.888C543.494 152.886 557.449 141.345 568.185 121.532C574.018 110.771 575.728 98.3758 575.426 85.7793C575.419 85.3592 575.582 84.9546 575.876 84.66C576.171 84.3653 576.572 84.2064 576.985 84.2204C603.309 85.0753 629.709 101.896 644.87 123.292C654.173 136.442 658.724 155.953 666.795 168.902ZM395.026 88.1427C395.537 88.1846 396.014 87.8958 396.217 87.4215C396.42 86.9473 396.306 86.3903 395.931 86.0307C384.918 75.9987 367.142 72.2524 351.503 68.0535C351.259 67.9859 350.997 68.0273 350.785 68.167C350.573 68.3067 350.432 68.5311 350.397 68.7827L347.581 92.1907C347.29 94.5392 348.718 96.7605 350.975 97.4707C365.131 101.971 376.319 95.3838 388.237 87.665C389.736 86.6999 391.62 86.5947 393.19 87.3884C394.179 87.8745 394.791 88.1259 395.026 88.1427ZM527.177 114.216C526.669 114.012 526.297 113.567 526.186 113.032C526.075 112.496 526.239 111.94 526.623 111.551L534.644 103.505C535.213 102.929 535.397 102.076 535.117 101.317C534.837 100.558 534.143 100.029 533.337 99.9598C528.895 99.6246 524.319 100.915 519.609 103.832C514.58 106.924 512.267 114.065 515.661 119.068C518.041 122.555 522.416 123.51 528.786 121.935C530.303 121.551 531.402 120.237 531.511 118.676C531.62 117.115 530.713 115.66 529.263 115.071L527.177 114.216ZM442.319 334.819C477.251 321.443 502.964 297.356 519.458 262.559C529.716 240.911 529.49 209.004 511.563 190.097C511.342 189.852 510.987 189.78 510.687 189.918C510.388 190.056 510.213 190.373 510.255 190.7C514.379 226.177 503.919 254.262 484.937 283C477.109 294.851 470.865 303.198 466.205 308.042C456.534 318.116 448.337 326.698 441.615 333.788C441.407 333.999 441.379 334.321 441.547 334.568C441.715 334.814 442.035 334.918 442.319 334.819Z" fill="#d78700" fill-rule="nonzero" opacity="1" stroke="none"/>
    <path d="M168.991 364.136C169.147 363.862 169.134 363.524 168.958 363.263C168.782 363.002 168.474 362.863 168.162 362.904C143.999 365.77 113.149 363.055 99.3708 340.275C99.1892 339.976 99.143 339.614 99.2432 339.275C99.3434 338.937 99.5809 338.652 99.8988 338.49L126.073 325.29C126.507 325.06 126.732 324.566 126.62 324.088C126.507 323.609 126.086 323.266 125.595 323.254C110.71 323.078 84.1594 317.546 78.0245 301.782C74.9822 294.038 79.1308 281.944 82.8771 274.502C83.0257 274.208 83.0255 273.862 82.8764 273.568C82.7274 273.275 82.4474 273.071 82.1228 273.018C47.5262 267.889 32.6668 232.488 47.2245 202.266C47.4037 201.9 47.4053 201.472 47.2288 201.104C47.0523 200.736 46.7172 200.47 46.3194 200.38C37.6535 198.268 31.6108 193.751 28.1914 186.828C22.7856 175.942 30.2279 164.778 41.0142 162.49C47.5514 161.116 53.5521 163.077 59.0165 168.374C64.9335 174.123 70.9342 180.057 77.0188 186.175C77.4112 186.555 77.999 186.652 78.4924 186.416C78.9858 186.181 79.2806 185.663 79.2314 185.119C77.4714 166.538 68.3445 158.04 55.9742 145.971C55.3918 145.388 55.2588 144.498 55.6474 143.784C63.7434 128.598 77.6977 129 89.2131 141.244C95.2474 147.631 99.3876 154.905 101.634 163.068C101.771 163.559 102.212 163.902 102.721 163.914C103.23 163.925 103.687 163.602 103.846 163.119C107.188 132.947 88.9496 132.947 86.4906 123.22C86.1836 122.99 93.1024 116.673 93.2289 116.311C93.3553 115.949 100.046 110.46 100.429 110.471C113.806 108.427 107.525 116.47 120.667 132.947C129.039 143.457 126.651 168.474 124.212 180.015C121.932 190.826 120.935 198.109 121.22 201.864C122.804 222.783 132.333 239.352 146.589 254.111C174.875 283.377 211.03 305.578 248.569 321.494C249.154 321.741 249.594 322.241 249.766 322.853C249.937 323.465 249.82 324.121 249.449 324.636C235.746 343.795 224.708 359.484 222.143 383.596C221.339 391.064 223.023 403.51 221.942 412.712C221.815 413.781 221.167 414.722 220.207 415.226C202.708 424.152 177.817 425.057 163.636 409.368C163.161 408.85 162.999 408.117 163.211 407.447C163.424 406.778 163.98 406.273 164.667 406.124C172.528 404.415 179.3 401.213 184.982 396.52C185.787 395.849 186.206 395.154 186.239 394.433C186.284 393.724 185.764 393.104 185.058 393.025C171.061 391.315 162.722 390.234 160.041 389.782C152.297 388.474 145.55 385.667 139.801 381.359C139.422 381.07 139.235 380.595 139.314 380.126C139.393 379.657 139.725 379.27 140.178 379.121C146.187 377.235 165.798 369.743 168.991 364.136Z" fill="#d78700" fill-rule="nonzero" opacity="1" stroke="none"/>
    <path d="M63.5674 124.65C63.7511 124.679 63.8953 124.823 63.924 125.006C63.9528 125.19 63.8594 125.371 63.6931 125.455L44.4588 136.568C44.0866 136.788 43.617 136.788 43.2268 136.568L30.2279 129.05C29.8042 128.817 29.5564 128.357 29.5943 127.875C29.6323 127.392 29.9489 126.977 30.4039 126.812C40.7628 122.907 51.8173 122.186 63.5674 124.65Z" fill="#e43606" fill-rule="nonzero" opacity="1" stroke="none"/>
    <path d="M99.1633 104.566C99.3481 104.586 99.4984 104.724 99.5351 104.906C99.5718 105.088 99.4864 105.274 99.3239 105.364L80.5918 117.304C80.2295 117.54 79.7603 117.56 79.3609 117.358L66.047 110.413C65.6136 110.198 65.346 109.75 65.3629 109.266C65.3797 108.783 65.678 108.354 66.1254 108.17C76.3044 103.817 87.317 102.616 99.1633 104.566Z" fill="#e43606" fill-rule="nonzero" opacity="1" stroke="none"/>
    <path d="M206.831 149.542C201.401 168.927 222.37 173.855 236.5 175.564C256.815 178.045 276.435 178.137 295.359 175.841C315.7 173.377 330.509 172.648 346.274 174.684C353.062 175.564 352.585 182.931 349.869 187.331C347.103 191.807 334.557 190.726 330.937 190.047C311.677 186.426 297.698 185.37 278.489 191.002C270.074 193.483 262.573 195.478 255.986 196.986C240.799 200.456 213.846 203.523 203.311 191.002C192.399 178.054 197.353 163.647 203.613 148.662C203.913 147.948 204.656 147.525 205.423 147.631L205.599 147.656C206.024 147.711 206.403 147.951 206.639 148.312C206.875 148.673 206.945 149.121 206.831 149.542Z" fill="#e43606" fill-rule="nonzero" opacity="1" stroke="none"/>
    <path d="M18.9891 168.223C19.3656 168.056 19.8069 168.157 20.0739 168.47C20.3409 168.784 20.3701 169.235 20.1456 169.58C17.7487 173.352 16.743 177.148 17.1285 180.97C17.1707 181.411 17.0262 181.85 16.7299 182.18C16.4337 182.509 16.0128 182.7 15.5696 182.705C10.6752 182.722 5.85611 181.599 1.11249 179.336C0.419029 179.003-0.0158072 178.295 0.00044003 177.526C0.0166873 176.757 0.481018 176.069 1.18792 175.766L18.9891 168.223Z" fill="#e43606" fill-rule="nonzero" opacity="1" stroke="none"/>
    <path d="M602.53 658.936C617.44 678.17 627.949 694.739 631.721 719.48C632.492 724.559 634.394 740.173 637.428 766.321C639.49 783.997 664.406 798.931 679.894 803.91C692.231 807.882 698.802 810.07 699.606 810.472C700.323 810.822 700.992 811.28 701.593 811.83C703.705 813.69 704.744 817.127 704.71 822.138C704.61 841.725 702.774 863.624 703.956 884.115C705.062 902.989 706.454 920.522 708.13 936.714C708.339 938.716 706.929 940.526 704.937 940.813C701.283 941.316 698.064 940.896 695.282 939.556C694.892 939.361 694.424 939.408 694.081 939.677C693.737 939.945 693.579 940.387 693.673 940.813C695.902 951.406 695.827 961.597 693.446 971.386C689.952 985.743 681.956 992.632 667.222 996.353C655.489 999.32 644.2 1000.48 633.355 999.823C624.656 999.32 621.714 998.013 622.644 988.634C623.516 979.935 627.924 973.28 635.869 968.671C636.24 968.472 636.404 968.027 636.25 967.636C636.096 967.244 635.673 967.03 635.266 967.137C621.806 970.59 613.685 979.114 610.902 992.708C610.428 995.038 608.296 996.653 605.924 996.479L586.162 995.021C585.395 994.971 584.67 994.67 584.1 994.166C572.685 984.159 589.908 956.678 597.929 948.356C598.245 948.034 598.315 947.543 598.102 947.146C597.889 946.748 597.442 946.535 596.998 946.621C574.546 950.618 561.321 974.328 557.826 994.845C557.768 995.24 557.444 995.536 557.043 995.559C556.642 995.583 556.269 995.329 556.141 994.945C548.724 971.16 558.429 944.408 580.857 932.993C588.45 929.121 604.164 930.127 612.662 931.962C620.39 933.639 625.804 934.133 628.905 933.446C637.788 931.485 642.138 924.989 641.954 913.96C641.552 889.395 625.611 867.949 604.768 856.333C592.8 849.661 579.7 843.451 565.469 837.702C534.761 825.331 512.367 802.527 498.287 769.288C485.85 739.888 478.324 710.554 475.709 681.288C472.767 648.401 473.899 623.585 449.535 605.608C449.272 605.383 448.884 605.384 448.621 605.609C448.358 605.835 448.298 606.218 448.479 606.513C453.257 615.598 455.084 625.152 453.961 635.176C453.926 635.444 453.746 635.671 453.493 635.766C453.241 635.86 452.956 635.808 452.754 635.629C436.897 621.733 418.744 611.575 398.294 605.155C380.51 599.574 366.807 595.509 357.186 592.961C344.698 589.659 334.876 582.946 327.718 572.822C327.335 572.272 327.231 571.574 327.439 570.937C327.646 570.3 328.141 569.797 328.774 569.578C346.425 563.594 371.618 551.35 373.881 529.35C373.898 529.097 373.769 528.858 373.548 528.734C373.328 528.61 373.056 528.625 372.85 528.771C352.132 544.159 329.327 554.761 304.436 560.577C303.826 560.712 303.19 560.502 302.784 560.032C302.378 559.563 302.268 558.911 302.5 558.339L315.449 526.307C315.535 526.129 315.479 525.914 315.316 525.801C315.153 525.688 314.931 525.711 314.795 525.855C302.76 537.236 290.079 548.567 276.754 559.848C270.686 564.977 264.4 569.679 257.897 573.953C257.496 574.209 256.983 574.211 256.58 573.958C256.177 573.706 255.956 573.244 256.011 572.771L259.179 546.371C259.279 545.789 258.924 545.224 258.355 545.062C257.786 544.901 257.187 545.194 256.966 545.743C252.038 556.177 247.135 566.385 237.305 569.503C219.252 575.235 203.814 580.113 195.869 598.945C190.338 612.07 184.982 624.314 168.639 625.647C158.758 626.451 142.013 623.837 141.561 610.561C141.141 598.258 147.008 590.573 159.161 587.505C159.642 587.363 159.957 586.902 159.914 586.402C159.871 585.903 159.483 585.502 158.985 585.443C152.179 584.941 145.759 586.097 139.725 588.913C133.993 591.603 129.316 597.763 123.835 603.018C120.591 606.136 110.71 607.443 107.241 602.918C95.8257 588.109 116.619 560.401 132.107 558.465C132.582 558.414 132.966 558.057 133.053 557.587C133.14 557.118 132.909 556.647 132.484 556.429C120.071 555.447 101.24 560.032 95.0953 572.822C94.9001 573.186 86.9889 560.67 86.5834 560.577C86.1778 560.484 82.4912 553.777 82.4528 553.359C85.7121 532.875 104.45 530.104 127.028 527.037C135.853 525.83 153.679 525.327 165.698 520.902C180.113 515.605 193.288 507.635 205.222 496.991C221.615 482.374 235.369 470.825 246.482 462.344C254.804 455.983 263.327 452.312 274.516 449.194C297.111 442.892 318.457 435.114 338.555 425.862C338.87 425.716 339.243 425.776 339.497 426.013C339.75 426.251 339.835 426.618 339.711 426.943C338.438 430.027 337.683 433.153 337.449 436.321C335.504 460.995 343.122 482.81 360.303 501.768C365.231 507.199 371.257 511.498 378.381 514.666C379.252 515.058 380.257 515.01 381.087 514.538C381.917 514.066 382.471 513.226 382.58 512.278C384.524 495.817 391.087 481.394 402.267 469.007C412.693 457.441 423.504 447.485 434.701 439.137C434.856 439.019 435.055 438.976 435.245 439.02C435.434 439.064 435.594 439.19 435.682 439.363C449.209 466.166 476.313 492.339 507.263 497.192C507.997 497.309 508.745 497.101 509.314 496.624C509.884 496.146 510.218 495.446 510.23 494.703L510.708 454.65C510.708 454.609 510.742 454.575 510.783 454.575L511.613 454.575C511.999 454.57 512.33 454.848 512.393 455.229C519.299 503.972 539.153 547.411 571.956 585.544C601.759 620.208 620.306 642.082 627.597 651.167C645.675 673.72 668.228 694.111 697.67 696.525C716.729 698.083 733.474 679.226 735.309 660.671C737.924 634.045 727.993 616.017 712.505 595.199C698.073 575.755 685.795 559.328 675.67 545.919C658.473 523.139 643.161 495.105 640.043 467.021C635.718 427.999 647.108 394.634 673.433 365.544C691.184 345.907 707.325 331.878 729.853 316.289C742.877 307.271 751.149 301.572 754.669 299.192C770.057 288.85 783.265 275.75 794.294 259.894C794.631 259.402 795.23 259.165 795.816 259.291C796.402 259.417 796.862 259.882 796.985 260.472C800.48 278.7 799.952 294.817 790.598 311.713C781.798 327.62 770.291 340.309 756.077 349.779C755.867 349.92 755.786 350.19 755.884 350.423C755.983 350.656 756.232 350.787 756.48 350.735C773.602 346.888 790.196 340.703 802.265 327.83C802.673 327.416 803.302 327.314 803.82 327.579C804.337 327.843 804.624 328.413 804.528 328.986C800.354 350.71 788.947 369.047 770.308 383.999C761.341 391.223 751.166 394.752 739.785 394.584C739.404 394.567 739.064 394.806 738.948 395.171C738.832 395.537 738.968 395.942 739.282 396.168C752.356 405.169 764.676 403.585 778.706 397.626C779.014 397.495 779.372 397.576 779.594 397.826C779.817 398.077 779.854 398.442 779.686 398.732C766.059 421.889 739.307 417.791 716.528 412.234C707.795 410.105 699.095 410.717 690.429 414.07C670.39 421.839 666.317 440.294 667.7 459.704C672.326 524.019 726.107 560.426 754.016 615.263C771.867 650.312 762.514 705.702 719.821 718.801C692.399 727.199 667.901 721.424 646.329 701.478C640.194 695.829 625.846 681.43 603.284 658.282C603.099 658.099 602.804 658.088 602.605 658.257L602.605 658.282C602.41 658.445 602.377 658.733 602.53 658.936Z" fill="#d78700" fill-rule="nonzero" opacity="1" stroke="none"/>
    <path d="M93.4874 601.208C93.5049 601.091 93.5892 600.995 93.7028 600.963C93.8165 600.93 93.9387 600.967 94.0154 601.057L103.62 613.654C103.915 614.054 103.973 614.582 103.771 615.037C101.474 620.182 100.326 626.284 100.326 633.341C100.322 633.821 100.026 634.252 99.5788 634.428C99.1315 634.605 98.6217 634.493 98.2897 634.145C88.8359 623.987 91.7777 613.478 93.4874 601.208Z" fill="#e43606" fill-rule="nonzero" opacity="1" stroke="none"/>
    <path d="M77.889 560.591C77.9065 560.474 77.9908 560.378 78.1045 560.346C78.2181 560.313 78.3403 560.35 78.417 560.44L88.0216 573.037C88.3169 573.437 88.3745 573.965 88.1724 574.419C85.876 579.565 84.7278 585.667 84.7278 592.723C84.7233 593.204 84.4277 593.634 83.9804 593.811C83.5331 593.988 83.0233 593.876 82.6913 593.528C73.2375 583.37 76.1793 572.861 77.889 560.591Z" fill="#e43606" fill-rule="nonzero" opacity="1" stroke="none"/>
    <path d="M146.187 655.894C146.167 656.101 146.022 656.275 145.821 656.331C145.62 656.387 145.405 656.313 145.282 656.145C139.323 648.426 134.747 639.802 136.079 628.614C136.104 628.388 136.244 628.191 136.449 628.094C136.654 627.996 136.895 628.012 137.085 628.136C140.655 630.416 144.393 632.016 148.299 632.938C148.671 633.027 148.912 633.378 148.852 633.743L146.187 655.894Z" fill="#e43606" fill-rule="nonzero" opacity="1" stroke="none"/>
    <path d="M139.826 964.296C139.751 964.661 139.423 964.91 139.05 964.885C138.676 964.86 138.367 964.569 138.317 964.196C136.741 945.188 142.692 929.549 156.169 917.279C176.333 898.925 193.078 906.342 213.947 917.153C225.839 923.288 235.469 918.083 247.236 911.094C262.087 902.294 275.103 891.08 286.283 877.453C295.561 866.163 303.556 846.602 294.102 833.201C290.398 827.971 284.783 820.186 277.257 809.843C268.188 797.389 262.054 782.555 258.852 765.341C252.089 728.909 266.093 695.896 293.172 671.608C316.639 650.572 345.109 637.129 378.582 631.279C408.578 626.024 431.181 641.286 449.359 663.085C451.112 665.197 452.182 667.793 452.427 670.527C454.187 690.758 457.279 711.468 461.705 732.655C461.923 733.668 461.283 734.667 460.271 734.893C428.617 741.958 377.652 768.307 374.987 805.142C373.646 823.831 376.722 840.04 384.214 853.768C391.43 866.943 392.687 875.793 383.033 885.699C381.977 886.789 372.372 894.977 354.219 910.264C353.957 910.495 353.586 910.55 353.264 910.405C352.942 910.26 352.727 909.942 352.71 909.585C352.509 900.467 353.557 891.7 355.853 883.286C355.914 883.084 355.882 882.866 355.765 882.691C355.648 882.515 355.459 882.402 355.25 882.381L354.596 882.305C354.428 882.291 354.274 882.384 354.219 882.531C349.492 894.483 342.938 907.44 334.557 921.402C327.115 933.773 318.667 954.943 300.287 938.701C300.008 938.456 299.616 938.386 299.269 938.517C298.922 938.649 298.675 938.961 298.628 939.329C296.566 954.641 289.099 964.196 277.433 975.485C268.951 983.664 258.718 987.428 246.733 986.774C233.592 986.07 221.674 984.972 210.98 983.48C206.89 982.91 203.613 981.854 201.149 980.312C199.225 979.099 198.246 976.821 198.685 974.58C200.621 964.698 207.284 959.117 215.103 953.258C215.414 953.012 215.534 952.597 215.404 952.223C215.274 951.849 214.921 951.599 214.525 951.599C198.258 952.152 193.103 961.933 186.893 974.328C185.88 976.365 183.777 977.623 181.513 977.546C170.777 977.169 153.026 970.431 160.719 956.829C167.433 944.936 181.211 935.533 192.852 928.92C193.212 928.73 193.412 928.332 193.35 927.929C193.288 927.526 192.977 927.207 192.575 927.135C175.101 923.59 162.781 933.396 149.883 945.414C144.72 950.224 141.368 956.519 139.826 964.296Z" fill="#d78700" fill-rule="nonzero" opacity="1" stroke="none"/></g>
</svg>