<svg xmlns="http://www.w3.org/2000/svg" viewBox="0 0 360 60" fill="none">
  <!-- "BONNEVAL" in warm red-orange -->
  <text x="0" y="28" font-family="Inter, system-ui, sans-serif" font-size="28" font-weight="700" fill="#C75B3A" letter-spacing="3">BONNEVAL</text>
  <!-- Golden lion emblem (simplified heraldic shape) -->
  <g transform="translate(210, 2) scale(0.55)">
    <path d="M50 10c-4 0-8 2-10 5-3-2-6-3-10-3s-7 1-10 3c-2-3-6-5-10-5-8 0-10 8-10 15 0 18 25 35 30 38 5-3 30-20 30-38 0-7-2-15-10-15z" fill="#D4A843"/>
    <path d="M30 20c0 0-8 8-8 16s4 12 8 15c4-3 8-7 8-15s-8-16-8-16z" fill="#B8922F"/>
    <circle cx="25" cy="28" r="2" fill="#0a1628"/>
    <circle cx="35" cy="28" r="2" fill="#0a1628"/>
    <path d="M28 35q2 3 4 0" stroke="#0a1628" stroke-width="1.5" fill="none" stroke-linecap="round"/>
  </g>
  <!-- "SOLUTIONS" in cyan/teal -->
  <text x="244" y="28" font-family="Inter, system-ui, sans-serif" font-size="28" font-weight="700" fill="#4ECDC4" letter-spacing="3">SOLUTIONS</text>
  <!-- Subtle tagline -->
  <text x="0" y="54" font-family="Inter, system-ui, sans-serif" font-size="10" font-weight="400" fill="#94A3B8" letter-spacing="2">INNOVATIVE DIGITAL SOLUTIONS</text>
</svg>
